<svg xmlns="http://www.w3.org/2000/svg" version="1.1" xmlns:xlink="http://www.w3.org/1999/xlink" xmlns:svgjs="http://svgjs.dev/svgjs" width="1500" height="1500" viewBox="0 0 1500 1500"><rect width="1500" height="1500" fill="#ffffff"></rect><g transform="matrix(0.6666666666666666,0,0,0.6666666666666666,249.39393939393938,438.5856950067477)"><svg viewBox="0 0 396 247" data-background-color="#f8f8f8" preserveAspectRatio="xMidYMid meet" height="935" width="1500" xmlns="http://www.w3.org/2000/svg" xmlns:xlink="http://www.w3.org/1999/xlink"><g id="tight-bounds" transform="matrix(1,0,0,1,0.2400000000000091,-0.09999999999999432)"><svg viewBox="0 0 395.52 247.2" height="247.2" width="395.52"><g><svg></svg></g><g><svg viewBox="0 0 395.52 247.2" height="247.2" width="395.52"><g transform="matrix(1,0,0,1,75.54432,53.79056090104585)"><svg viewBox="0 0 244.43135999999998 139.6188781979083" height="139.6188781979083" width="244.43135999999998"><g><svg viewBox="0 0 244.43135999999998 139.6188781979083" height="139.6188781979083" width="244.43135999999998"><g><svg viewBox="0 0 244.43135999999998 139.6188781979083" height="139.6188781979083" width="244.43135999999998"><g><svg viewBox="0 0 244.43135999999998 139.6188781979083" height="139.6188781979083" width="244.43135999999998"><g id="textblocktransform"><svg viewBox="0 0 244.43135999999998 139.6188781979083" height="139.6188781979083" width="244.43135999999998" id="textblock"><g><svg viewBox="0 0 244.43135999999998 139.6188781979083" height="139.6188781979083" width="244.43135999999998"><g transform="matrix(1,0,0,1,0,0)"><svg width="244.43135999999998" viewBox="1.65 -35 62.15 35.5" height="139.6188781979083" data-palette-color="#ffffff"><path d="M18 0L14.75 0Q14 0 13.58-0.35 13.15-0.7 12.9-1.3L12.9-1.3 1.75-33.45Q1.65-33.75 1.65-34L1.65-34Q1.65-34.4 1.95-34.7 2.25-35 2.65-35L2.65-35 5.25-35Q5.85-35 6.18-34.68 6.5-34.35 6.6-34.1L6.6-34.1 16.35-5.75 26.15-34.1Q26.25-34.35 26.55-34.68 26.85-35 27.45-35L27.45-35 30.05-35Q30.45-35 30.78-34.7 31.1-34.4 31.1-34L31.1-34Q31.1-33.75 31-33.45L31-33.45 19.8-1.3Q19.6-0.7 19.18-0.35 18.75 0 18 0L18 0ZM50.3 0.5L50.3 0.5Q46.1 0.5 43.07-1 40.05-2.5 38.42-5.58 36.8-8.65 36.8-13.5L36.8-13.5 36.8-33.8Q36.8-34.35 37.1-34.68 37.4-35 37.95-35L37.95-35 40.5-35Q41.05-35 41.37-34.68 41.7-34.35 41.7-33.8L41.7-33.8 41.7-13.4Q41.7-8.5 44-6.15 46.3-3.8 50.3-3.8L50.3-3.8Q54.25-3.8 56.57-6.15 58.9-8.5 58.9-13.4L58.9-13.4 58.9-33.8Q58.9-34.35 59.22-34.68 59.55-35 60.05-35L60.05-35 62.65-35Q63.15-35 63.47-34.68 63.8-34.35 63.8-33.8L63.8-33.8 63.8-13.5Q63.8-8.65 62.17-5.58 60.55-2.5 57.55-1 54.55 0.5 50.3 0.5Z" opacity="1" transform="matrix(1,0,0,1,0,0)" fill="#000000" class="wordmark-text-0" data-fill-palette-color="primary" id="text-0"></path></svg></g></svg></g></svg></g></svg></g></svg></g></svg></g></svg></g><path d="M251.187 47.791L251.187 3.428 10.844 3.428 10.844 243.772 251.187 243.772 251.187 199.409 238.596 199.409 238.596 231.181 23.435 231.181 23.435 16.019 238.596 16.019 238.596 47.791Z" fill="#000000" stroke="transparent" data-fill-palette-color="tertiary"></path></svg></g><defs></defs></svg><rect width="395.52" height="247.2" fill="none" stroke="none" visibility="hidden"></rect></g></svg></g></svg>